<?xml version="1.0" encoding="UTF-8" standalone="no"?>
<!DOCTYPE svg PUBLIC "-//W3C//DTD SVG 1.1//EN" "http://www.w3.org/Graphics/SVG/1.1/DTD/svg11.dtd">
<svg width="100%" height="100%" viewBox="0 0 1200 1200" version="1.1" xmlns="http://www.w3.org/2000/svg" xmlns:xlink="http://www.w3.org/1999/xlink" xml:space="preserve" xmlns:serif="http://www.serif.com/" style="fill-rule:evenodd;clip-rule:evenodd;stroke-linecap:round;stroke-miterlimit:1;">
    <g transform="matrix(1,0,0,1,37.4655,51.4808)">
        <g transform="matrix(144,0,0,144,132.609,891.304)">
            <path d="M0.025,-0.722L0.398,-0.722C0.471,-0.722 0.527,-0.706 0.567,-0.673C0.607,-0.64 0.626,-0.597 0.626,-0.543C0.626,-0.512 0.619,-0.483 0.603,-0.458C0.587,-0.433 0.564,-0.413 0.534,-0.399C0.505,-0.384 0.458,-0.373 0.394,-0.367C0.44,-0.354 0.472,-0.342 0.49,-0.329C0.508,-0.317 0.522,-0.301 0.532,-0.282C0.543,-0.263 0.555,-0.223 0.569,-0.164C0.579,-0.121 0.589,-0.092 0.6,-0.076C0.609,-0.064 0.618,-0.058 0.627,-0.058C0.638,-0.058 0.647,-0.066 0.656,-0.08C0.664,-0.095 0.669,-0.121 0.671,-0.159L0.705,-0.159C0.698,-0.048 0.658,0.007 0.582,0.007C0.558,0.007 0.538,0.001 0.52,-0.011C0.503,-0.023 0.49,-0.041 0.481,-0.064C0.474,-0.082 0.466,-0.128 0.458,-0.202C0.453,-0.245 0.445,-0.276 0.435,-0.294C0.424,-0.313 0.408,-0.327 0.385,-0.338C0.363,-0.349 0.336,-0.355 0.305,-0.355L0.246,-0.355L0.246,-0.071C0.246,-0.059 0.249,-0.051 0.255,-0.046C0.263,-0.04 0.275,-0.037 0.292,-0.037L0.361,-0.037L0.361,0L0.025,0L0.025,-0.037L0.096,-0.037C0.112,-0.037 0.123,-0.04 0.131,-0.046C0.138,-0.052 0.142,-0.061 0.142,-0.071L0.142,-0.648C0.142,-0.661 0.138,-0.67 0.13,-0.676C0.123,-0.682 0.111,-0.686 0.096,-0.686L0.025,-0.686L0.025,-0.722ZM0.246,-0.39L0.331,-0.39C0.388,-0.39 0.433,-0.401 0.466,-0.423C0.498,-0.444 0.514,-0.483 0.514,-0.538C0.514,-0.576 0.508,-0.606 0.496,-0.628C0.484,-0.65 0.468,-0.665 0.448,-0.673C0.428,-0.681 0.389,-0.686 0.331,-0.686C0.292,-0.686 0.268,-0.683 0.259,-0.678C0.25,-0.672 0.246,-0.663 0.246,-0.65L0.246,-0.39Z" style="fill:rgb(255,61,0);fill-rule:nonzero;"/>
        </g>
        <g transform="matrix(144,0,0,144,236.601,891.304)">
            <path d="M0.349,-0.737L0.382,-0.737L0.641,-0.077C0.652,-0.05 0.673,-0.037 0.705,-0.037L0.728,-0.037L0.728,0L0.439,0L0.439,-0.037L0.462,-0.037C0.492,-0.037 0.514,-0.04 0.526,-0.046C0.534,-0.051 0.539,-0.058 0.539,-0.067C0.539,-0.073 0.537,-0.079 0.535,-0.085L0.475,-0.238L0.19,-0.238L0.156,-0.15C0.147,-0.127 0.143,-0.108 0.143,-0.095C0.143,-0.079 0.15,-0.065 0.165,-0.054C0.18,-0.042 0.202,-0.037 0.23,-0.037L0.254,-0.037L0.254,0L-0.007,0L-0.007,-0.037C0.021,-0.037 0.043,-0.043 0.059,-0.055C0.075,-0.067 0.09,-0.09 0.104,-0.125L0.349,-0.737ZM0.335,-0.598L0.206,-0.276L0.461,-0.276L0.335,-0.598Z" style="fill:rgb(255,61,0);fill-rule:nonzero;"/>
        </g>
        <g transform="matrix(144,0,0,144,340.593,891.304)">
            <path d="M0.025,-0.722L0.398,-0.722C0.471,-0.722 0.527,-0.706 0.567,-0.673C0.607,-0.64 0.626,-0.597 0.626,-0.543C0.626,-0.512 0.619,-0.483 0.603,-0.458C0.587,-0.433 0.564,-0.413 0.534,-0.399C0.505,-0.384 0.458,-0.373 0.394,-0.367C0.44,-0.354 0.472,-0.342 0.49,-0.329C0.508,-0.317 0.522,-0.301 0.532,-0.282C0.543,-0.263 0.555,-0.223 0.569,-0.164C0.579,-0.121 0.589,-0.092 0.6,-0.076C0.609,-0.064 0.618,-0.058 0.627,-0.058C0.638,-0.058 0.647,-0.066 0.656,-0.08C0.664,-0.095 0.669,-0.121 0.671,-0.159L0.705,-0.159C0.698,-0.048 0.658,0.007 0.582,0.007C0.558,0.007 0.538,0.001 0.52,-0.011C0.503,-0.023 0.49,-0.041 0.481,-0.064C0.474,-0.082 0.466,-0.128 0.458,-0.202C0.453,-0.245 0.445,-0.276 0.435,-0.294C0.424,-0.313 0.408,-0.327 0.385,-0.338C0.363,-0.349 0.336,-0.355 0.305,-0.355L0.246,-0.355L0.246,-0.071C0.246,-0.059 0.249,-0.051 0.255,-0.046C0.263,-0.04 0.275,-0.037 0.292,-0.037L0.361,-0.037L0.361,0L0.025,0L0.025,-0.037L0.096,-0.037C0.112,-0.037 0.123,-0.04 0.131,-0.046C0.138,-0.052 0.142,-0.061 0.142,-0.071L0.142,-0.648C0.142,-0.661 0.138,-0.67 0.13,-0.676C0.123,-0.682 0.111,-0.686 0.096,-0.686L0.025,-0.686L0.025,-0.722ZM0.246,-0.39L0.331,-0.39C0.388,-0.39 0.433,-0.401 0.466,-0.423C0.498,-0.444 0.514,-0.483 0.514,-0.538C0.514,-0.576 0.508,-0.606 0.496,-0.628C0.484,-0.65 0.468,-0.665 0.448,-0.673C0.428,-0.681 0.389,-0.686 0.331,-0.686C0.292,-0.686 0.268,-0.683 0.259,-0.678C0.25,-0.672 0.246,-0.663 0.246,-0.65L0.246,-0.39Z" style="fill:rgb(255,61,0);fill-rule:nonzero;"/>
        </g>
        <g transform="matrix(144,0,0,144,444.585,891.304)">
            <rect x="0.067" y="-0.422" width="0.198" height="0.074" style="fill:rgb(255,61,0);fill-rule:nonzero;"/>
        </g>
        <g transform="matrix(144,0,0,144,492.538,891.304)">
            <path d="M0.349,-0.737L0.382,-0.737L0.641,-0.077C0.652,-0.05 0.673,-0.037 0.705,-0.037L0.728,-0.037L0.728,0L0.439,0L0.439,-0.037L0.462,-0.037C0.492,-0.037 0.514,-0.04 0.526,-0.046C0.534,-0.051 0.539,-0.058 0.539,-0.067C0.539,-0.073 0.537,-0.079 0.535,-0.085L0.475,-0.238L0.19,-0.238L0.156,-0.15C0.147,-0.127 0.143,-0.108 0.143,-0.095C0.143,-0.079 0.15,-0.065 0.165,-0.054C0.18,-0.042 0.202,-0.037 0.23,-0.037L0.254,-0.037L0.254,0L-0.007,0L-0.007,-0.037C0.021,-0.037 0.043,-0.043 0.059,-0.055C0.075,-0.067 0.09,-0.09 0.104,-0.125L0.349,-0.737ZM0.335,-0.598L0.206,-0.276L0.461,-0.276L0.335,-0.598Z" style="fill:rgb(255,61,0);fill-rule:nonzero;"/>
        </g>
        <g transform="matrix(144,0,0,144,596.531,891.304)">
            <path d="M0.027,-0.722L0.36,-0.722L0.36,-0.686L0.293,-0.686C0.276,-0.686 0.263,-0.683 0.256,-0.677C0.249,-0.671 0.245,-0.662 0.245,-0.65L0.245,-0.242C0.245,-0.2 0.249,-0.167 0.256,-0.146C0.267,-0.113 0.288,-0.088 0.317,-0.068C0.346,-0.049 0.385,-0.04 0.432,-0.04C0.498,-0.04 0.548,-0.057 0.583,-0.091C0.617,-0.125 0.634,-0.17 0.634,-0.227L0.634,-0.559C0.634,-0.588 0.632,-0.61 0.628,-0.625C0.624,-0.64 0.618,-0.652 0.611,-0.661C0.603,-0.669 0.593,-0.675 0.582,-0.679C0.57,-0.684 0.55,-0.686 0.523,-0.686L0.523,-0.722L0.796,-0.722L0.796,-0.686L0.776,-0.686C0.746,-0.686 0.723,-0.677 0.708,-0.661C0.693,-0.644 0.686,-0.621 0.686,-0.589L0.686,-0.234C0.686,-0.157 0.663,-0.097 0.619,-0.056C0.569,-0.01 0.503,0.014 0.42,0.014C0.349,0.014 0.292,0.003 0.251,-0.017C0.21,-0.037 0.181,-0.066 0.162,-0.104C0.148,-0.133 0.141,-0.17 0.141,-0.214L0.141,-0.65C0.141,-0.661 0.137,-0.67 0.13,-0.676C0.122,-0.682 0.111,-0.686 0.095,-0.686L0.027,-0.686L0.027,-0.722Z" style="fill:rgb(255,61,0);fill-rule:nonzero;"/>
        </g>
        <g transform="matrix(144,0,0,144,713.882,891.304)">
            <path d="M0.034,-0.722L0.407,-0.722C0.463,-0.722 0.51,-0.712 0.548,-0.693C0.597,-0.668 0.637,-0.627 0.671,-0.569C0.705,-0.512 0.722,-0.444 0.722,-0.365C0.722,-0.3 0.712,-0.241 0.691,-0.189C0.676,-0.149 0.653,-0.114 0.621,-0.084C0.589,-0.054 0.55,-0.032 0.505,-0.017C0.471,-0.006 0.425,0 0.368,0L0.034,0L0.034,-0.037L0.103,-0.037C0.12,-0.037 0.132,-0.039 0.138,-0.045C0.145,-0.05 0.148,-0.059 0.148,-0.071L0.148,-0.652C0.148,-0.662 0.145,-0.67 0.138,-0.677C0.131,-0.683 0.121,-0.686 0.108,-0.686L0.034,-0.686L0.034,-0.722ZM0.296,-0.686C0.281,-0.686 0.27,-0.682 0.263,-0.676C0.256,-0.67 0.253,-0.661 0.253,-0.648L0.253,-0.072C0.253,-0.061 0.257,-0.052 0.265,-0.046C0.273,-0.04 0.287,-0.037 0.307,-0.037L0.368,-0.037C0.423,-0.037 0.471,-0.051 0.513,-0.079C0.54,-0.098 0.56,-0.125 0.574,-0.159C0.593,-0.205 0.603,-0.269 0.603,-0.35C0.603,-0.471 0.582,-0.559 0.54,-0.615C0.504,-0.662 0.45,-0.686 0.378,-0.686L0.296,-0.686Z" style="fill:rgb(255,61,0);fill-rule:nonzero;"/>
        </g>
        <g transform="matrix(144,0,0,144,825.89,891.304)">
            <path d="M0.037,-0.722L0.37,-0.722L0.37,-0.686L0.313,-0.686C0.288,-0.686 0.272,-0.682 0.265,-0.676C0.258,-0.67 0.255,-0.656 0.255,-0.636L0.255,-0.089C0.255,-0.067 0.258,-0.053 0.264,-0.048C0.271,-0.04 0.286,-0.037 0.306,-0.037L0.37,-0.037L0.37,0L0.037,0L0.037,-0.037L0.1,-0.037C0.122,-0.037 0.137,-0.04 0.143,-0.046C0.15,-0.053 0.153,-0.067 0.153,-0.089L0.153,-0.636C0.153,-0.657 0.15,-0.669 0.144,-0.674C0.135,-0.682 0.118,-0.686 0.094,-0.686L0.037,-0.686L0.037,-0.722Z" style="fill:rgb(255,61,0);fill-rule:nonzero;"/>
        </g>
        <g transform="matrix(144,0,0,144,884.531,891.304)">
            <path d="M0.383,-0.737C0.444,-0.737 0.501,-0.721 0.554,-0.689C0.607,-0.657 0.649,-0.612 0.679,-0.555C0.709,-0.497 0.724,-0.433 0.724,-0.361C0.724,-0.289 0.709,-0.224 0.679,-0.166C0.648,-0.108 0.607,-0.063 0.554,-0.031C0.501,0.002 0.445,0.018 0.386,0.018C0.328,0.018 0.273,0.002 0.223,-0.03C0.172,-0.061 0.131,-0.107 0.1,-0.166C0.07,-0.225 0.054,-0.29 0.054,-0.362C0.054,-0.433 0.069,-0.497 0.099,-0.554C0.129,-0.612 0.169,-0.656 0.221,-0.689C0.273,-0.721 0.327,-0.737 0.383,-0.737ZM0.391,-0.7C0.327,-0.7 0.276,-0.673 0.236,-0.621C0.197,-0.568 0.177,-0.482 0.177,-0.363C0.177,-0.234 0.197,-0.144 0.238,-0.095C0.278,-0.045 0.328,-0.021 0.388,-0.021C0.429,-0.021 0.466,-0.032 0.498,-0.054C0.529,-0.077 0.554,-0.112 0.573,-0.161C0.592,-0.21 0.601,-0.274 0.601,-0.354C0.601,-0.44 0.592,-0.508 0.575,-0.556C0.557,-0.605 0.532,-0.641 0.5,-0.665C0.467,-0.688 0.431,-0.7 0.391,-0.7Z" style="fill:rgb(255,61,0);fill-rule:nonzero;"/>
        </g>
    </g>
    <g>
        <g>
            <g transform="matrix(0.707107,-0.707107,0.648889,0.648889,-135.542,551.196)">
                <rect x="557" y="169" width="17" height="225" style="fill:rgb(255,61,0);stroke:rgb(147,147,147);stroke-width:0.49px;stroke-dasharray:1.46,0.98,0,0;"/>
            </g>
            <g transform="matrix(-0.707107,-0.707107,-0.648889,0.648889,1330.54,551.196)">
                <rect x="557" y="169" width="17" height="225" style="fill:rgb(255,61,0);stroke:rgb(147,147,147);stroke-width:0.49px;stroke-dasharray:1.46,0.98,0,0;"/>
            </g>
            <g transform="matrix(0.707107,0.707107,0.648889,-0.648889,-135.542,423.804)">
                <rect x="557" y="169" width="17" height="225" style="fill:rgb(255,61,0);stroke:rgb(147,147,147);stroke-width:0.49px;stroke-dasharray:1.46,0.98,0,0;"/>
            </g>
            <g transform="matrix(-0.707107,0.707107,-0.648889,-0.648889,1336.54,423.804)">
                <rect x="557" y="169" width="17" height="225" style="fill:rgb(255,61,0);stroke:rgb(147,147,147);stroke-width:0.49px;stroke-dasharray:1.46,0.98,0,0;"/>
            </g>
            <rect x="544" y="431" width="112" height="113" style="fill:rgb(255,61,0);stroke:rgb(147,147,147);stroke-width:0.47px;stroke-dasharray:1.4,0.94,0,0;"/>
        </g>
        <g transform="matrix(1,0,0,1,-4,0)">
            <g transform="matrix(0.472789,0.472789,-0.472789,0.472789,435.486,52.0612)">
                <rect x="350" y="424" width="147" height="147" style="fill:rgb(255,61,0);"/>
            </g>
            <g transform="matrix(0.472789,0.472789,-0.472789,0.472789,842.486,52.0612)">
                <rect x="350" y="424" width="147" height="147" style="fill:rgb(255,61,0);"/>
            </g>
        </g>
        <g>
            <g>
                <rect x="556" y="413" width="13" height="12" style="fill:rgb(255,61,0);stroke:rgb(147,147,147);stroke-width:0.25px;stroke-linejoin:round;stroke-miterlimit:1.5;stroke-dasharray:0.25,0.25;"/>
                <g transform="matrix(1,0,0,1,25,0)">
                    <rect x="556" y="413" width="13" height="12" style="fill:rgb(255,61,0);stroke:rgb(147,147,147);stroke-width:0.19px;stroke-linejoin:round;stroke-miterlimit:1.5;stroke-dasharray:0.19,0.19;"/>
                </g>
                <g transform="matrix(1,0,0,1,50,0)">
                    <rect x="556" y="413" width="13" height="12" style="fill:rgb(255,61,0);stroke:rgb(147,147,147);stroke-width:0.39px;stroke-linejoin:round;stroke-miterlimit:1.5;stroke-dasharray:0.39,0.39;"/>
                </g>
                <g transform="matrix(1,0,0,1,75,0)">
                    <rect x="556" y="413" width="13" height="12" style="fill:rgb(255,61,0);stroke:rgb(147,147,147);stroke-width:0.39px;stroke-linejoin:round;stroke-miterlimit:1.5;stroke-dasharray:0.39,0.39;"/>
                </g>
            </g>
            <g transform="matrix(1,0,0,-1,0,976)">
                <rect x="556" y="413" width="13" height="12" style="fill:rgb(255,61,0);stroke:rgb(147,147,147);stroke-width:0.25px;stroke-linejoin:round;stroke-miterlimit:1.5;stroke-dasharray:0.25,0.25;"/>
                <g transform="matrix(1,0,0,1,25,0)">
                    <rect x="556" y="413" width="13" height="12" style="fill:rgb(255,61,0);stroke:rgb(147,147,147);stroke-width:0.19px;stroke-linejoin:round;stroke-miterlimit:1.5;stroke-dasharray:0.19,0.19;"/>
                </g>
                <g transform="matrix(1,0,0,1,50,0)">
                    <rect x="556" y="413" width="13" height="12" style="fill:rgb(255,61,0);stroke:rgb(147,147,147);stroke-width:0.39px;stroke-linejoin:round;stroke-miterlimit:1.5;stroke-dasharray:0.39,0.39;"/>
                </g>
                <g transform="matrix(1,0,0,1,75,0)">
                    <rect x="556" y="413" width="13" height="12" style="fill:rgb(255,61,0);stroke:rgb(147,147,147);stroke-width:0.39px;stroke-linejoin:round;stroke-miterlimit:1.5;stroke-dasharray:0.39,0.39;"/>
                </g>
            </g>
            <g transform="matrix(6.245e-17,1,-1,6.245e-17,1088,-113)">
                <rect x="556" y="413" width="13" height="12" style="fill:rgb(255,61,0);stroke:rgb(147,147,147);stroke-width:0.25px;stroke-linejoin:round;stroke-miterlimit:1.5;stroke-dasharray:0.25,0.25;"/>
                <g transform="matrix(1,0,0,1,25,0)">
                    <rect x="556" y="413" width="13" height="12" style="fill:rgb(255,61,0);stroke:rgb(147,147,147);stroke-width:0.19px;stroke-linejoin:round;stroke-miterlimit:1.5;stroke-dasharray:0.19,0.19;"/>
                </g>
                <g transform="matrix(1,0,0,1,50,0)">
                    <rect x="556" y="413" width="13" height="12" style="fill:rgb(255,61,0);stroke:rgb(147,147,147);stroke-width:0.39px;stroke-linejoin:round;stroke-miterlimit:1.5;stroke-dasharray:0.39,0.39;"/>
                </g>
                <g transform="matrix(1,0,0,1,75,0)">
                    <rect x="556" y="413" width="13" height="12" style="fill:rgb(255,61,0);stroke:rgb(147,147,147);stroke-width:0.39px;stroke-linejoin:round;stroke-miterlimit:1.5;stroke-dasharray:0.39,0.39;"/>
                </g>
            </g>
            <g transform="matrix(-6.245e-17,1,1,6.245e-17,113,-113)">
                <rect x="556" y="413" width="13" height="12" style="fill:rgb(255,61,0);stroke:rgb(147,147,147);stroke-width:0.25px;stroke-linejoin:round;stroke-miterlimit:1.5;stroke-dasharray:0.25,0.25;"/>
                <g transform="matrix(1,0,0,1,25,0)">
                    <rect x="556" y="413" width="13" height="12" style="fill:rgb(255,61,0);stroke:rgb(147,147,147);stroke-width:0.19px;stroke-linejoin:round;stroke-miterlimit:1.5;stroke-dasharray:0.19,0.19;"/>
                </g>
                <g transform="matrix(1,0,0,1,50,0)">
                    <rect x="556" y="413" width="13" height="12" style="fill:rgb(255,61,0);stroke:rgb(147,147,147);stroke-width:0.39px;stroke-linejoin:round;stroke-miterlimit:1.5;stroke-dasharray:0.39,0.39;"/>
                </g>
                <g transform="matrix(1,0,0,1,75,0)">
                    <rect x="556" y="413" width="13" height="12" style="fill:rgb(255,61,0);stroke:rgb(147,147,147);stroke-width:0.39px;stroke-linejoin:round;stroke-miterlimit:1.5;stroke-dasharray:0.39,0.39;"/>
                </g>
            </g>
        </g>
        <g>
            <g transform="matrix(1,0,0,1,-7,7)">
                <circle cx="572.5" cy="445.5" r="8.5" style="fill:rgb(18,18,18);stroke:rgb(147,147,147);stroke-width:0.47px;stroke-dasharray:1.4,0.94,0,0;"/>
            </g>
            <g transform="matrix(1,0,0,1,62,76)">
                <circle cx="572.5" cy="445.5" r="8.5" style="fill:rgb(18,18,18);stroke:rgb(147,147,147);stroke-width:0.47px;stroke-dasharray:1.4,0.94,0,0;"/>
            </g>
        </g>
    </g>
</svg>
